<svg id="Capa_1" data-name="Capa 1" xmlns="http://www.w3.org/2000/svg" width="283.46" height="170.08" viewBox="0 0 283.46 170.08">
  <defs>
    <style>
      .cls-1 {
        fill: #124734;
      }

      .cls-2 {
        fill: #f3bd48;
      }
    </style>
  </defs>
  <title> copia 2</title>
  <g>
    <path class="cls-1" d="M210.44,105.41l-.06.9-1.28,4.35H189.72a3.84,3.84,0,0,0,1.62-1.75,6.1,6.1,0,0,0,.56-2.6V91.65a2.93,2.93,0,0,0-.5-1.24,4.65,4.65,0,0,0-1-1,1.09,1.09,0,0,0-.37-.11h17.7l1.15,4.57h-.3a9.79,9.79,0,0,0-1.26-1.54,5.49,5.49,0,0,0-1.48-1.09l-3.7-1.18h-6.76v8.78h6.69a4.26,4.26,0,0,0,2.13-.84,6.85,6.85,0,0,0,1.63-1.93v6.59a3.86,3.86,0,0,0-1.49-2,6.19,6.19,0,0,0-2.45-1H195.3V107a3,3,0,0,0,.73,2,2.35,2.35,0,0,0,1.88.86H202l3.24-.88a9.07,9.07,0,0,0,2.62-1.35,22,22,0,0,0,2.6-2.26ZM49,108.39a19.6,19.6,0,0,0-1.08-3.74,8.59,8.59,0,0,1-2.6,4.3,6.24,6.24,0,0,1-4.27,1.71,8.29,8.29,0,0,1-6.75-3.38,11.37,11.37,0,0,1-1.51-3.39,15.18,15.18,0,0,1-.51-4A13.64,13.64,0,0,1,34,93a6.85,6.85,0,0,1,5-3.53h3a6.76,6.76,0,0,1,3.37,2.08,7.69,7.69,0,0,1,1.81,3.72h.25L48.6,91a20.09,20.09,0,0,0-3.83-1.77,12.76,12.76,0,0,0-4-.65,17,17,0,0,0-3.43.34,15.27,15.27,0,0,0-3.26,1,10.17,10.17,0,0,0-4.28,4.24,12.79,12.79,0,0,0-1.5,6.13,24.53,24.53,0,0,0,.22,2.59,8,8,0,0,0,1.84,3.87,13,13,0,0,0,4.28,3.41l3.33.93H42.9l3.08-.94,3-1.84Zm8.19-8.23a38.74,38.74,0,0,1,3.18-6.9c.68,1.37,1.24,2.54,1.65,3.5s.93,2.1,1.49,3.4l.37.68c.82,1.64,1.44,3,1.9,4.07s.79,1.88,1,2.46a3.85,3.85,0,0,1,.33,1.37,2.06,2.06,0,0,1-.33,1.18,1.86,1.86,0,0,1-.94.74H73.7a9.51,9.51,0,0,1-.87-.79c-.27-.28-1.44-2.08-3.5-5.38a108.63,108.63,0,0,1-7.48-15.87h-.19q-2.35,5.09-4.49,9.52T52.8,107a15.42,15.42,0,0,1-2.93,3.68H56l-.72-.47a2.07,2.07,0,0,1-1.21-2,4.56,4.56,0,0,1,.31-1.59l2.42-5.73m42.39,9.82v-.41a2.21,2.21,0,0,1-1.44-1,3.73,3.73,0,0,1-.48-1.93V91.84a3.33,3.33,0,0,1,.47-1.76,3.82,3.82,0,0,1,1-.48l0-.34H93.61q-1.52,3.94-3.26,8.1c-1.17,2.75-2.31,5.38-3.45,7.87q-3.87-7.82-7.26-16H74.55l-.13.21a6.15,6.15,0,0,1,.65.45,3.47,3.47,0,0,1,.5.39,5.87,5.87,0,0,1,.35.79,4.39,4.39,0,0,1,.09.56v14.79a25.07,25.07,0,0,1-1.14,2.49,6.13,6.13,0,0,1-1.41,1.72h6.06a1.36,1.36,0,0,0-.27-.34,4.58,4.58,0,0,1-1.35-1.11,9.63,9.63,0,0,1-1-3.3v-14c.6,1.41,1.51,3.49,2.69,6.23s2.2,5,3,6.73L85.33,111q1.41-3.17,3.33-7.54c1.28-2.9,2.18-4.94,2.68-6.12s1.25-3,2.27-5.42v15.48a3.83,3.83,0,0,1-.87,2.46,3.27,3.27,0,0,0-.41.23,1.32,1.32,0,0,1-.45.21v.32Zm8.88-.09a8.32,8.32,0,0,1-1.45-1.31,2.28,2.28,0,0,1-.39-1V91.19a2.7,2.7,0,0,1,1.29-1.85h-6.25l-.18.14a1.93,1.93,0,0,1,1.11.92,3.13,3.13,0,0,1,.41,1.56v14.47a7.26,7.26,0,0,1-.45,2.6,2.6,2.6,0,0,1-1.52,1.54ZM131.4,89.26h-6a7.42,7.42,0,0,1,1.72,1.57,5.48,5.48,0,0,1,1,2V104.2q-3.73-3.47-7-7.1c-2.17-2.42-4.33-5-6.44-7.84h-5.55l.12.34a2.8,2.8,0,0,1,1.2.71,1.7,1.7,0,0,1,.45,1.21c.24,2.4.37,4.82.37,7.25a70.46,70.46,0,0,1-.56,8.79,5.23,5.23,0,0,1-2.18,3.1h6.1a4.8,4.8,0,0,1-2-2.12,6.68,6.68,0,0,1-.7-3V92.14q8.49,9.09,16.6,19h.3c0-1.27,0-3.15.08-5.61s.11-4.71.16-6.72.08-4.13.08-6.35A5.58,5.58,0,0,1,130,90.7a8.08,8.08,0,0,1,1.38-1.44Zm19.82,7.08a14.71,14.71,0,0,0-1.32-3.53,6.49,6.49,0,0,0-5.85-3.51,6.73,6.73,0,0,0-3.74,1.13,6.08,6.08,0,0,0-2.4,2.91,20.79,20.79,0,0,0-1,3.46,19.73,19.73,0,0,0-.31,3.47,15.13,15.13,0,0,0,1.17,6.06,8,8,0,0,0,3.71,4,7.13,7.13,0,0,0,2.46.44,7.28,7.28,0,0,0,4-1.22,8.79,8.79,0,0,0,2.82-3.92,14.94,14.94,0,0,0,.92-5.3,18,18,0,0,0-.46-4Zm1.4-4a12,12,0,0,1,2.92,6.49q0,.23,0,.57c0,.22,0,.45,0,.67a10.91,10.91,0,0,1-2.58,7.25c-1.71,2-3.34,3.21-4.86,3.5a26.08,26.08,0,0,1-3.17.47l-1,0a27.92,27.92,0,0,1-3.19-.33c-1.56-.23-3.22-1.26-5-3.11a12.24,12.24,0,0,1-3.2-6.87,14.41,14.41,0,0,1,1.45-6.43,9.79,9.79,0,0,1,4.29-4.43,12.47,12.47,0,0,1,5.87-1.5,21.21,21.21,0,0,1,3.56.47,9,9,0,0,1,4.82,3.22Zm28,6a5.25,5.25,0,0,0,2.16-2.86,5.52,5.52,0,0,0,.09-1,3.75,3.75,0,0,0-1.53-3.11,5.51,5.51,0,0,0-3.46-1.2h-5.47v9l.31.14h2.58c2.52,0,4.3-.33,5.32-1Zm7.74,11.48c.25.18.54.38.87.58l-.13.34h-5l-.58-1-1.91-5.77a5.65,5.65,0,0,0-2-2.82,4.94,4.94,0,0,0-3.16-1.11h-4.09v6.87a5.28,5.28,0,0,0,1,3.09l1.18.44v.34H167l-.19-.28a2.52,2.52,0,0,0,1.57-1.07,3.41,3.41,0,0,0,.57-2V92.9a4.61,4.61,0,0,0-.81-2.76,2.61,2.61,0,0,0-1.08-.54l.06-.34h13.75A10.91,10.91,0,0,1,185,90.79a3.68,3.68,0,0,1,1.91,3.3,4.91,4.91,0,0,1-1.24,3.38,5.51,5.51,0,0,1-3.15,1.75l-3.2.41a10.88,10.88,0,0,1,3.74,1.31,6.22,6.22,0,0,1,2.39,2.82l2.18,5.38c.21.21.43.4.66.6Zm29.91-9.58a40.2,40.2,0,0,1,3.18-6.9c.68,1.37,1.24,2.54,1.66,3.5s.93,2.1,1.48,3.4l.37.68c.81,1.64,1.44,3,1.91,4.07s.78,1.88,1,2.46a3.85,3.85,0,0,1,.33,1.37,2.06,2.06,0,0,1-.33,1.18,1.93,1.93,0,0,1-1,.74h7.84c-.3-.25-.59-.52-.87-.79s-1.43-2.08-3.49-5.38a106.55,106.55,0,0,1-7.48-15.87h-.2c-1.58,3.39-3.06,6.57-4.48,9.52s-2.89,5.9-4.37,8.84a15.67,15.67,0,0,1-2.93,3.68H217l-.72-.47a2.06,2.06,0,0,1-1.22-2,4.59,4.59,0,0,1,.32-1.59l2.42-5.73m37.29,4.29h-.44a10.58,10.58,0,0,1-5.94,4.22l-3.39.55-2.86-.27a5.59,5.59,0,0,1-1.11-.81,2.31,2.31,0,0,1-.54-1.12V91a4,4,0,0,1,.62-1.08,2.26,2.26,0,0,1,.89-.64h-6.68l.06.21a3.09,3.09,0,0,1,.29.21,1,1,0,0,0,.41.19,2.11,2.11,0,0,1,.6.88,4.27,4.27,0,0,1,.3,1.14v16.2a5,5,0,0,0-.37.5,2.91,2.91,0,0,1-.71,1.24,4.25,4.25,0,0,1-1.17.83h18.64l1.4-5.53Z"/>
    <path class="cls-2" d="M136,59.09l-5.26-16.67h-21a56.37,56.37,0,0,1,29.65-9.86V53.9h0v4.61a23.35,23.35,0,0,0-3.36.58Zm-9.45,4.78A23.61,23.61,0,0,1,130.92,61l-6.41-11.48H101.25a56.45,56.45,0,0,0-5.9,7.09h25l6.27,7.27ZM123.4,67l-5.6-4.75h-26a55.32,55.32,0,0,0-3.22,7.09h27l4.69,2.48A24.61,24.61,0,0,1,123.4,67Zm-4.33,8H86.82c-.4,1.55-.73,3.12-1,4.72H118.1a23.67,23.67,0,0,1,1-4.72Zm28.37-15.94,5.26-16.67h21.05a56.37,56.37,0,0,0-29.65-9.86V53.9h0v4.61a23.25,23.25,0,0,1,3.37.58Zm9.46,4.78,6.26-7.27h25a56.45,56.45,0,0,0-5.9-7.09H159L152.54,61a24,24,0,0,1,4.36,2.88ZM160.05,67a23.76,23.76,0,0,1,3.09,4.81l4.69-2.48h27a53.93,53.93,0,0,0-3.21-7.09h-26L160.05,67Zm4.34,8a23,23,0,0,1,1,4.72h32.28c-.27-1.6-.6-3.17-1-4.72ZM144.12,63.4V75h-4.74V63.39A18.87,18.87,0,0,0,123,79.64h37.42A18.88,18.88,0,0,0,144.12,63.4Z"/>
    <path class="cls-1" d="M189.25,132.48l3.21.07-2.57,1.91.93,3.06-2.61-1.84-2.63,1.82.95-3.05L184,132.52l3.2,0,1-3,1,3Zm-23.23,0-1-3-1.05,3-3.2,0,2.55,1.93-.95,3.05,2.63-1.82,2.61,1.84-.93-3.06,2.57-1.91-3.2-.07Zm-23.24,0-1-3-1.05,3-3.19,0,2.55,1.93-1,3.05,2.62-1.82,2.62,1.84-.93-3.06,2.56-1.91-3.19-.07Zm-23.25,0-1-3-1,3-3.2,0,2.54,1.93-.94,3.05,2.62-1.82,2.62,1.84-.94-3.06,2.57-1.91-3.2-.07Zm-23.25,0-1-3-1.05,3-3.2,0,2.56,1.93-.95,3.05,2.62-1.82,2.61,1.84-.93-3.06,2.57-1.91-3.21-.07Z"/>
    <polygon class="cls-2" points="85.09 120.09 198.37 120.09 154.2 122.35 135.9 122.35 85.09 120.09 85.09 120.09"/>
  </g>
</svg>
